# xmcd
#
# Track frame offsets:
#	150
#	23755
#	43277
#	74587
#
# Disc length: 1308 seconds
#
# Revision: 1
# Processed by: cddbd v1.5.1PL0 Copyright (c) Steve Scherf et al.
# Submitted via: CDex 1.50Beta5
#
DISCID=35051a04
DTITLE=PENICILLIN - Japanese Industrial Students
DYEAR=2000
DGENRE=Rock
TTITLE0=Japanese Industrial Students
TTITLE1=ロマンス?ギターストラングラーMIX
TTITLE2=ロマンス?The Depth of the Mind MIX
TTITLE3=Japanese Industrial Students NO VOCAL EDITION
EXTD=
EXTT0=
EXTT1=
EXTT2=
EXTT3=
PLAYORDER=
